<?xml version="1.0" encoding="UTF-8"?>
<!DOCTYPE svg PUBLIC "-//W3C//DTD SVG 1.1//EN" "http://www.w3.org/Graphics/SVG/1.1/DTD/svg11.dtd">
<!-- Creator: CorelDRAW 2019 (64 Bit) -->
<svg xmlns="http://www.w3.org/2000/svg" xml:space="preserve" width="50mm" height="50mm" version="1.1" style="shape-rendering:geometricPrecision; text-rendering:geometricPrecision; image-rendering:optimizeQuality; fill-rule:evenodd; clip-rule:evenodd"
viewBox="0 0 5000 5000"
 xmlns:xlink="http://www.w3.org/1999/xlink"
 xmlns:xodm="http://www.corel.com/coreldraw/odm/2003">
 <defs>
  <style type="text/css">
   <![CDATA[
    .str0 {stroke:#373435;stroke-width:7.62;stroke-miterlimit:22.9256}
    .str1 {stroke:black;stroke-width:7.62;stroke-miterlimit:22.9256}
    .fil3 {fill:#3B4792}
    .fil0 {fill:#376E94}
    .fil6 {fill:#6B4694}
    .fil1 {fill:#94774D}
    .fil2 {fill:#94932F}
    .fil5 {fill:#FEFEFE;fill-rule:nonzero}
    .fil4 {fill:#FEFEFE;fill-rule:nonzero}
   ]]>
  </style>
 </defs>
 <g id="Camada_x0020_1">
  <metadata id="CorelCorpID_0Corel-Layer"/>
  <g id="_2226589199792">
   <circle class="fil0 str0" cx="4583.54" cy="1100.13" r="313.34"/>
   <circle class="fil1 str0" cx="706.26" cy="631.57" r="313.34"/>
   <circle class="fil2 str0" cx="2709.33" cy="573" r="313.34"/>
   <path class="fil3 str1" d="M693.28 1188.73c9.31,70.38 43.86,143.5 76.52,193.93 49.32,76.21 213.78,182.18 308.63,231.09 585.24,301.8 962.44,316.41 1260.48,883.83 149.13,283.94 224.52,515.75 183.27,894.68 -61.09,-34.13 -107.17,-85.84 -181.66,-131.58 -64.07,-39.33 -149.85,-77.25 -229.31,-100.75 -495.41,-146.6 -915.81,94.41 -1143.41,-55.5 -142.91,-167.76 -601.13,-550.1 -206.61,115.92 106.73,125.46 163.01,186.2 395.07,185.91 431.47,-0.49 610.53,-16.71 951.39,327.22 60.14,60.67 92.65,111.03 138.73,190.81 179.48,310.74 -22.36,217.47 -204.01,622.28l1770.24 2.99c116.83,-364.18 58.74,-603.15 12.25,-1004.46 -19.42,-167.63 -32.44,-313.02 -83.97,-470.86 -52.54,-160.84 -121.93,-241.43 -179.31,-375.12 -48.09,-112.04 88.83,-300.72 151.38,-360.7 54.16,-51.92 87.98,-71.59 150.78,-119.25l91.23 -73.72c64,-51.7 69.95,-58.97 114.21,-128.59 681.02,-1071.95 25.62,-488.63 -166.7,-223.73 -319.63,440.58 -1278.81,408.31 -1616.23,-90.78 -84.46,-124.97 -96.54,-166.24 -29.97,-305.89 121.1,-254.13 424.91,-637.16 129.05,-497.63 -388.24,183.12 -427.94,857.35 -1136.78,500.22 -282.91,-142.56 -299.18,-140.21 -460.28,-364.81 -95.77,-101.99 -103.4,90.83 -94.99,154.49z"/>
   <path class="fil4" d="M4713.98 1125.25l0 51.42c0,6.87 -0.69,12.31 -2,16.37 -1.38,4.12 -3.81,7.81 -7.44,11.05 -3.62,3.31 -8.24,6.5 -13.87,9.56 -16.18,8.75 -31.79,15.12 -46.79,19.18 -14.99,4 -31.36,6 -49.04,6 -20.61,0 -39.42,-3.19 -56.35,-9.5 -16.99,-6.37 -31.42,-15.55 -43.35,-27.67 -12,-12.06 -21.18,-26.68 -27.55,-43.86 -6.44,-17.24 -9.62,-36.42 -9.62,-57.66 0,-20.86 3.12,-39.92 9.3,-57.29 6.25,-17.3 15.37,-31.98 27.49,-44.1 12.06,-12.06 26.74,-21.3 44.11,-27.68 17.3,-6.43 36.92,-9.62 58.91,-9.62 18.05,0 34.05,2.44 47.91,7.25 13.94,4.81 25.24,10.87 33.86,18.18 8.69,7.31 15.18,15.06 19.62,23.24 4.37,8.18 6.56,15.43 6.56,21.8 0,6.81 -2.56,12.62 -7.62,17.43 -5.06,4.87 -11.12,7.25 -18.24,7.25 -3.88,0 -7.63,-0.88 -11.25,-2.75 -3.62,-1.81 -6.62,-4.37 -9.06,-7.62 -6.74,-10.5 -12.37,-18.43 -16.99,-23.8 -4.68,-5.31 -10.93,-9.87 -18.74,-13.5 -7.87,-3.68 -17.93,-5.5 -30.11,-5.5 -12.56,0 -23.8,2.19 -33.67,6.5 -9.88,4.31 -18.31,10.62 -25.31,18.87 -6.99,8.18 -12.37,18.3 -16.11,30.23 -3.69,12 -5.56,25.24 -5.56,39.74 0,31.48 7.24,55.66 21.67,72.65 14.44,16.93 34.61,25.43 60.41,25.43 12.56,0 24.37,-1.63 35.43,-4.94 10.99,-3.31 22.24,-7.99 33.54,-14.12l0 -43.54 -42.04 0c-10.12,0 -17.8,-1.5 -22.99,-4.56 -5.18,-3.06 -7.75,-8.25 -7.75,-15.62 0,-5.93 2.19,-10.93 6.5,-14.8 4.31,-3.94 10.18,-5.88 17.68,-5.88l61.66 0c7.56,0 13.99,0.69 19.24,2 5.25,1.38 9.5,4.38 12.68,9 3.25,4.62 4.88,11.62 4.88,20.86z"/>
   <path class="fil5" d="M2830.09 622.43c0,8.55 -2.07,17.8 -6.31,27.73 -4.19,9.94 -10.81,19.68 -19.87,29.24 -9,9.62 -20.55,17.37 -34.55,23.36 -14.05,5.94 -30.42,8.94 -49.1,8.94 -14.12,0 -26.99,-1.31 -38.61,-4 -11.55,-2.69 -22.11,-6.87 -31.55,-12.56 -9.43,-5.62 -18.17,-13.12 -26.11,-22.36 -7.06,-8.44 -13.12,-17.81 -18.12,-28.24 -4.99,-10.43 -8.74,-21.61 -11.24,-33.42 -2.5,-11.87 -3.75,-24.43 -3.75,-37.73 0,-21.56 3.13,-40.92 9.43,-57.98 6.25,-17.12 15.31,-31.73 26.99,-43.85 11.75,-12.12 25.43,-21.37 41.17,-27.74 15.74,-6.31 32.55,-9.5 50.35,-9.5 21.74,0 41.05,4.31 58.04,13 16.93,8.62 29.92,19.36 38.98,32.11 9,12.74 13.56,24.74 13.56,36.11 0,6.24 -2.25,11.68 -6.62,16.49 -4.38,4.75 -9.69,7.12 -15.93,7.12 -6.94,0 -12.19,-1.69 -15.62,-4.93 -3.5,-3.32 -7.37,-9 -11.62,-17.06 -7.12,-13.31 -15.43,-23.24 -24.99,-29.86 -9.62,-6.56 -21.37,-9.87 -35.42,-9.87 -22.37,0 -40.11,8.5 -53.35,25.43 -13.25,16.99 -19.87,41.1 -19.87,72.34 0,20.86 2.94,38.23 8.81,52.1 5.81,13.87 14.12,24.18 24.86,31.05 10.75,6.81 23.31,10.24 37.74,10.24 15.61,0 28.8,-3.87 39.6,-11.62 10.81,-7.74 18.93,-19.11 24.43,-34.17 2.31,-7.06 5.19,-12.81 8.62,-17.3 3.37,-4.44 8.87,-6.69 16.43,-6.69 6.5,0 12.06,2.25 16.68,6.81 4.62,4.5 6.94,10.12 6.94,16.81z"/>
   <path class="fil4" d="M794.96 542.37l-59.29 0 0 194.79c0,11.24 -2.5,19.55 -7.56,24.99 -5,5.43 -11.49,8.12 -19.43,8.12 -8.06,0 -14.68,-2.75 -19.74,-8.25 -5.06,-5.5 -7.62,-13.74 -7.62,-24.86l0 -194.79 -59.29 0c-9.3,0 -16.18,-2.06 -20.67,-6.12 -4.5,-4.12 -6.81,-9.56 -6.81,-16.31 0,-6.93 2.37,-12.43 7.06,-16.49 4.68,-4.06 11.49,-6.06 20.42,-6.06l172.93 0c9.43,0 16.36,2.06 20.99,6.25 4.56,4.18 6.87,9.62 6.87,16.3 0,6.75 -2.38,12.19 -7,16.31 -4.62,4.06 -11.56,6.12 -20.86,6.12z"/>
   <circle class="fil6 str0" cx="436.85" cy="2529.22" r="313.34"/>
   <path class="fil5" d="M512.74 2633l-12.81 -33.68 -109.07 0 -12.81 34.36c-5,13.43 -9.24,22.49 -12.8,27.18 -3.5,4.68 -9.31,7.06 -17.37,7.06 -6.81,0 -12.87,-2.5 -18.12,-7.5 -5.25,-5 -7.87,-10.68 -7.87,-16.99 0,-3.69 0.63,-7.5 1.81,-11.37 1.25,-3.94 3.25,-9.31 6.06,-16.31l68.6 -174.17c1.99,-4.99 4.31,-10.99 7.06,-17.99 2.74,-7.06 5.68,-12.87 8.8,-17.49 3.13,-4.62 7.19,-8.37 12.25,-11.25 5.06,-2.87 11.31,-4.31 18.74,-4.31 7.62,0 13.93,1.44 18.99,4.31 5.06,2.88 9.12,6.56 12.25,11.06 3.12,4.5 5.74,9.37 7.87,14.56 2.12,5.18 4.87,12.12 8.12,20.74l70.09 173.11c5.5,13.18 8.25,22.74 8.25,28.73 0,6.19 -2.56,11.94 -7.75,17.12 -5.18,5.19 -11.49,7.75 -18.8,7.75 -4.25,0 -7.94,-0.75 -11,-2.31 -3,-1.5 -5.56,-3.56 -7.68,-6.19 -2.06,-2.62 -4.25,-6.68 -6.62,-12.06 -2.44,-5.43 -4.44,-10.24 -6.19,-14.36zm-107.57 -74.53l80.15 0 -40.42 -110.58 -39.73 110.58z"/>
  </g>
 </g>
</svg>
